<svg width="984" height="504" viewBox="0 0 984 504" fill="none" xmlns="http://www.w3.org/2000/svg">
<g filter="url(#filter0_d_5_34)">
<rect x="4" y="36" width="976" height="460" rx="15" fill="#449C33"/>
<rect x="609" width="347" height="36" fill="#C61818"/>
<rect x="25" width="274" height="36" fill="#C61818"/>
<path d="M621.522 29V8H630.612C632.492 8 634.112 8.31 635.472 8.93C636.832 9.53 637.882 10.4 638.622 11.54C639.362 12.68 639.732 14.04 639.732 15.62C639.732 17.18 639.362 18.53 638.622 19.67C637.882 20.79 636.832 21.65 635.472 22.25C634.112 22.85 632.492 23.15 630.612 23.15H624.222L626.382 21.02V29H621.522ZM634.872 29L629.622 21.38H634.812L640.122 29H634.872ZM626.382 21.56L624.222 19.28H630.342C631.842 19.28 632.962 18.96 633.702 18.32C634.442 17.66 634.812 16.76 634.812 15.62C634.812 14.46 634.442 13.56 633.702 12.92C632.962 12.28 631.842 11.96 630.342 11.96H624.222L626.382 9.65V21.56ZM648.053 16.46H658.163V20.24H648.053V16.46ZM648.413 25.1H659.843V29H643.583V8H659.453V11.9H648.413V25.1ZM670.61 29.36C668.93 29.36 667.32 29.14 665.78 28.7C664.24 28.24 663 27.65 662.06 26.93L663.71 23.27C664.61 23.91 665.67 24.44 666.89 24.86C668.13 25.26 669.38 25.46 670.64 25.46C671.6 25.46 672.37 25.37 672.95 25.19C673.55 24.99 673.99 24.72 674.27 24.38C674.55 24.04 674.69 23.65 674.69 23.21C674.69 22.65 674.47 22.21 674.03 21.89C673.59 21.55 673.01 21.28 672.29 21.08C671.57 20.86 670.77 20.66 669.89 20.48C669.03 20.28 668.16 20.04 667.28 19.76C666.42 19.48 665.63 19.12 664.91 18.68C664.19 18.24 663.6 17.66 663.14 16.94C662.7 16.22 662.48 15.3 662.48 14.18C662.48 12.98 662.8 11.89 663.44 10.91C664.1 9.91 665.08 9.12 666.38 8.54C667.7 7.94 669.35 7.64 671.33 7.64C672.65 7.64 673.95 7.8 675.23 8.12C676.51 8.42 677.64 8.88 678.62 9.5L677.12 13.19C676.14 12.63 675.16 12.22 674.18 11.96C673.2 11.68 672.24 11.54 671.3 11.54C670.36 11.54 669.59 11.65 668.99 11.87C668.39 12.09 667.96 12.38 667.7 12.74C667.44 13.08 667.31 13.48 667.31 13.94C667.31 14.48 667.53 14.92 667.97 15.26C668.41 15.58 668.99 15.84 669.71 16.04C670.43 16.24 671.22 16.44 672.08 16.64C672.96 16.84 673.83 17.07 674.69 17.33C675.57 17.59 676.37 17.94 677.09 18.38C677.81 18.82 678.39 19.4 678.83 20.12C679.29 20.84 679.52 21.75 679.52 22.85C679.52 24.03 679.19 25.11 678.53 26.09C677.87 27.07 676.88 27.86 675.56 28.46C674.26 29.06 672.61 29.36 670.61 29.36ZM686.898 29V11.96H680.178V8H698.478V11.96H691.758V29H686.898ZM701.093 29V8H710.183C712.063 8 713.683 8.31 715.043 8.93C716.403 9.53 717.453 10.4 718.193 11.54C718.933 12.68 719.303 14.04 719.303 15.62C719.303 17.18 718.933 18.53 718.193 19.67C717.453 20.79 716.403 21.65 715.043 22.25C713.683 22.85 712.063 23.15 710.183 23.15H703.793L705.953 21.02V29H701.093ZM714.443 29L709.193 21.38H714.383L719.693 29H714.443ZM705.953 21.56L703.793 19.28H709.913C711.413 19.28 712.533 18.96 713.273 18.32C714.013 17.66 714.383 16.76 714.383 15.62C714.383 14.46 714.013 13.56 713.273 12.92C712.533 12.28 711.413 11.96 709.913 11.96H703.793L705.953 9.65V21.56ZM723.153 29V8H728.013V29H723.153ZM743.047 29.36C741.427 29.36 739.917 29.1 738.517 28.58C737.137 28.04 735.937 27.28 734.917 26.3C733.897 25.32 733.097 24.17 732.517 22.85C731.957 21.53 731.677 20.08 731.677 18.5C731.677 16.92 731.957 15.47 732.517 14.15C733.097 12.83 733.897 11.68 734.917 10.7C735.957 9.72 737.167 8.97 738.547 8.45C739.927 7.91 741.437 7.64 743.077 7.64C744.897 7.64 746.537 7.96 747.997 8.6C749.477 9.22 750.717 10.14 751.717 11.36L748.597 14.24C747.877 13.42 747.077 12.81 746.197 12.41C745.317 11.99 744.357 11.78 743.317 11.78C742.337 11.78 741.437 11.94 740.617 12.26C739.797 12.58 739.087 13.04 738.487 13.64C737.887 14.24 737.417 14.95 737.077 15.77C736.757 16.59 736.597 17.5 736.597 18.5C736.597 19.5 736.757 20.41 737.077 21.23C737.417 22.05 737.887 22.76 738.487 23.36C739.087 23.96 739.797 24.42 740.617 24.74C741.437 25.06 742.337 25.22 743.317 25.22C744.357 25.22 745.317 25.02 746.197 24.62C747.077 24.2 747.877 23.57 748.597 22.73L751.717 25.61C750.717 26.83 749.477 27.76 747.997 28.4C746.537 29.04 744.887 29.36 743.047 29.36ZM741.427 35.96C740.907 35.96 740.397 35.9 739.897 35.78C739.417 35.66 738.997 35.51 738.637 35.33L739.357 33.32C739.657 33.46 739.967 33.57 740.287 33.65C740.607 33.73 740.947 33.77 741.307 33.77C741.867 33.77 742.267 33.68 742.507 33.5C742.747 33.32 742.867 33.09 742.867 32.81C742.867 32.55 742.747 32.34 742.507 32.18C742.287 32.02 741.917 31.94 741.397 31.94H740.377L741.157 28.76H743.647L743.227 30.5C744.127 30.6 744.787 30.88 745.207 31.34C745.627 31.82 745.837 32.37 745.837 32.99C745.837 33.89 745.437 34.61 744.637 35.15C743.837 35.69 742.767 35.96 741.427 35.96ZM751.858 29L761.218 8H766.018L775.408 29H770.308L762.628 10.46H764.548L756.838 29H751.858ZM756.538 24.5L757.828 20.81H768.628L769.948 24.5H756.538ZM765.868 6.38C765.348 6.38 764.888 6.29 764.488 6.11C764.088 5.91 763.728 5.69 763.408 5.45C763.088 5.19 762.788 4.97 762.508 4.79C762.228 4.59 761.948 4.49 761.668 4.49C761.268 4.49 760.938 4.64 760.678 4.94C760.418 5.22 760.268 5.63 760.228 6.17H757.858C757.898 4.83 758.228 3.77 758.848 2.99C759.468 2.19 760.308 1.79 761.368 1.79C761.888 1.79 762.348 1.89 762.748 2.09C763.148 2.27 763.508 2.49 763.828 2.75C764.168 3.01 764.478 3.24 764.758 3.44C765.038 3.62 765.308 3.71 765.568 3.71C765.988 3.71 766.328 3.57 766.588 3.29C766.848 2.99 766.988 2.59 767.008 2.09H769.378C769.358 3.37 769.028 4.41 768.388 5.21C767.768 5.99 766.928 6.38 765.868 6.38ZM787.494 29.36C785.834 29.36 784.294 29.09 782.874 28.55C781.474 28.01 780.254 27.25 779.214 26.27C778.194 25.29 777.394 24.14 776.814 22.82C776.254 21.5 775.974 20.06 775.974 18.5C775.974 16.94 776.254 15.5 776.814 14.18C777.394 12.86 778.204 11.71 779.244 10.73C780.284 9.75 781.504 8.99 782.904 8.45C784.304 7.91 785.824 7.64 787.464 7.64C789.124 7.64 790.644 7.91 792.024 8.45C793.424 8.99 794.634 9.75 795.654 10.73C796.694 11.71 797.504 12.86 798.084 14.18C798.664 15.48 798.954 16.92 798.954 18.5C798.954 20.06 798.664 21.51 798.084 22.85C797.504 24.17 796.694 25.32 795.654 26.3C794.634 27.26 793.424 28.01 792.024 28.55C790.644 29.09 789.134 29.36 787.494 29.36ZM787.464 25.22C788.404 25.22 789.264 25.06 790.044 24.74C790.844 24.42 791.544 23.96 792.144 23.36C792.744 22.76 793.204 22.05 793.524 21.23C793.864 20.41 794.034 19.5 794.034 18.5C794.034 17.5 793.864 16.59 793.524 15.77C793.204 14.95 792.744 14.24 792.144 13.64C791.564 13.04 790.874 12.58 790.074 12.26C789.274 11.94 788.404 11.78 787.464 11.78C786.524 11.78 785.654 11.94 784.854 12.26C784.074 12.58 783.384 13.04 782.784 13.64C782.184 14.24 781.714 14.95 781.374 15.77C781.054 16.59 780.894 17.5 780.894 18.5C780.894 19.48 781.054 20.39 781.374 21.23C781.714 22.05 782.174 22.76 782.754 23.36C783.354 23.96 784.054 24.42 784.854 24.74C785.654 25.06 786.524 25.22 787.464 25.22ZM804.046 18.47C803.246 18.47 802.556 18.2 801.976 17.66C801.416 17.1 801.136 16.39 801.136 15.53C801.136 14.67 801.416 13.98 801.976 13.46C802.556 12.92 803.246 12.65 804.046 12.65C804.866 12.65 805.556 12.92 806.116 13.46C806.676 13.98 806.956 14.67 806.956 15.53C806.956 16.39 806.676 17.1 806.116 17.66C805.556 18.2 804.866 18.47 804.046 18.47ZM804.046 29.24C803.246 29.24 802.556 28.97 801.976 28.43C801.416 27.87 801.136 27.16 801.136 26.3C801.136 25.44 801.416 24.75 801.976 24.23C802.556 23.69 803.246 23.42 804.046 23.42C804.866 23.42 805.556 23.69 806.116 24.23C806.676 24.75 806.956 25.44 806.956 26.3C806.956 27.16 806.676 27.87 806.116 28.43C805.556 28.97 804.866 29.24 804.046 29.24Z" fill="white"/>
<path d="M39.9851 29V8H49.5251C51.8051 8 53.8151 8.44 55.5551 9.32C57.2951 10.18 58.6551 11.39 59.6351 12.95C60.6151 14.51 61.1051 16.36 61.1051 18.5C61.1051 20.62 60.6151 22.47 59.6351 24.05C58.6551 25.61 57.2951 26.83 55.5551 27.71C53.8151 28.57 51.8051 29 49.5251 29H39.9851ZM44.8451 25.01H49.2851C50.6851 25.01 51.8951 24.75 52.9151 24.23C53.9551 23.69 54.7551 22.93 55.3151 21.95C55.8951 20.97 56.1851 19.82 56.1851 18.5C56.1851 17.16 55.8951 16.01 55.3151 15.05C54.7551 14.07 53.9551 13.32 52.9151 12.8C51.8951 12.26 50.6851 11.99 49.2851 11.99H44.8451V25.01ZM61.7173 29L71.0773 8H75.8773L85.2673 29H80.1673L72.4873 10.46H74.4073L66.6973 29H61.7173ZM66.3973 24.5L67.6873 20.81H78.4873L79.8073 24.5H66.3973ZM90.7414 29V11.96H84.0214V8H102.321V11.96H95.6014V29H90.7414ZM101.122 29L110.482 8H115.282L124.672 29H119.572L111.892 10.46H113.812L106.102 29H101.122ZM105.802 24.5L107.092 20.81H117.892L119.212 24.5H105.802ZM128.583 18.47C127.783 18.47 127.093 18.2 126.513 17.66C125.953 17.1 125.673 16.39 125.673 15.53C125.673 14.67 125.953 13.98 126.513 13.46C127.093 12.92 127.783 12.65 128.583 12.65C129.403 12.65 130.093 12.92 130.653 13.46C131.213 13.98 131.493 14.67 131.493 15.53C131.493 16.39 131.213 17.1 130.653 17.66C130.093 18.2 129.403 18.47 128.583 18.47ZM128.583 29.24C127.783 29.24 127.093 28.97 126.513 28.43C125.953 27.87 125.673 27.16 125.673 26.3C125.673 25.44 125.953 24.75 126.513 24.23C127.093 23.69 127.783 23.42 128.583 23.42C129.403 23.42 130.093 23.69 130.653 24.23C131.213 24.75 131.493 25.44 131.493 26.3C131.493 27.16 131.213 27.87 130.653 28.43C130.093 28.97 129.403 29.24 128.583 29.24Z" fill="white"/>
</g>
<defs>
<filter id="filter0_d_5_34" x="0" y="0" width="984" height="504" filterUnits="userSpaceOnUse" color-interpolation-filters="sRGB">
<feFlood flood-opacity="0" result="BackgroundImageFix"/>
<feColorMatrix in="SourceAlpha" type="matrix" values="0 0 0 0 0 0 0 0 0 0 0 0 0 0 0 0 0 0 127 0" result="hardAlpha"/>
<feOffset dy="4"/>
<feGaussianBlur stdDeviation="2"/>
<feComposite in2="hardAlpha" operator="out"/>
<feColorMatrix type="matrix" values="0 0 0 0 0 0 0 0 0 0 0 0 0 0 0 0 0 0 0.25 0"/>
<feBlend mode="normal" in2="BackgroundImageFix" result="effect1_dropShadow_5_34"/>
<feBlend mode="normal" in="SourceGraphic" in2="effect1_dropShadow_5_34" result="shape"/>
</filter>
</defs>
</svg>
