<svg width="514" height="685" viewBox="0 0 514 685" fill="none" xmlns="http://www.w3.org/2000/svg">
<rect width="489" height="582.289" fill="#449C33"/>
<rect x="16" y="17" width="498" height="668" fill="#C61818"/>
<path d="M33.075 142.814V125.314H36.425L46.75 137.914H45.125V125.314H49.125V142.814H45.8L35.45 130.214H37.075V142.814H33.075ZM59.3904 143.014C57.9571 143.014 56.6821 142.714 55.5654 142.114C54.4654 141.514 53.5904 140.698 52.9404 139.664C52.3071 138.614 51.9904 137.423 51.9904 136.089C51.9904 134.739 52.3071 133.548 52.9404 132.514C53.5904 131.464 54.4654 130.648 55.5654 130.064C56.6821 129.464 57.9571 129.164 59.3904 129.164C60.8071 129.164 62.0738 129.464 63.1904 130.064C64.3071 130.648 65.1821 131.456 65.8154 132.489C66.4488 133.523 66.7654 134.723 66.7654 136.089C66.7654 137.423 66.4488 138.614 65.8154 139.664C65.1821 140.698 64.3071 141.514 63.1904 142.114C62.0738 142.714 60.8071 143.014 59.3904 143.014ZM59.3904 139.814C60.0404 139.814 60.6238 139.664 61.1404 139.364C61.6571 139.064 62.0654 138.639 62.3654 138.089C62.6654 137.523 62.8154 136.856 62.8154 136.089C62.8154 135.306 62.6654 134.639 62.3654 134.089C62.0654 133.539 61.6571 133.114 61.1404 132.814C60.6238 132.514 60.0404 132.364 59.3904 132.364C58.7404 132.364 58.1571 132.514 57.6404 132.814C57.1238 133.114 56.7071 133.539 56.3904 134.089C56.0904 134.639 55.9404 135.306 55.9404 136.089C55.9404 136.856 56.0904 137.523 56.3904 138.089C56.7071 138.639 57.1238 139.064 57.6404 139.364C58.1571 139.664 58.7404 139.814 59.3904 139.814ZM86.5973 129.164C87.6639 129.164 88.6056 129.381 89.4223 129.814C90.2556 130.231 90.9056 130.881 91.3723 131.764C91.8556 132.631 92.0973 133.748 92.0973 135.114V142.814H88.1973V135.714C88.1973 134.631 87.9723 133.831 87.5223 133.314C87.0723 132.798 86.4389 132.539 85.6223 132.539C85.0556 132.539 84.5473 132.673 84.0973 132.939C83.6473 133.189 83.2973 133.573 83.0473 134.089C82.7973 134.606 82.6723 135.264 82.6723 136.064V142.814H78.7723V135.714C78.7723 134.631 78.5473 133.831 78.0973 133.314C77.6639 132.798 77.0389 132.539 76.2223 132.539C75.6556 132.539 75.1473 132.673 74.6973 132.939C74.2473 133.189 73.8973 133.573 73.6473 134.089C73.3973 134.606 73.2723 135.264 73.2723 136.064V142.814H69.3723V129.364H73.0973V133.039L72.3973 131.964C72.8639 131.048 73.5223 130.356 74.3723 129.889C75.2389 129.406 76.2223 129.164 77.3223 129.164C78.5556 129.164 79.6306 129.481 80.5473 130.114C81.4806 130.731 82.0973 131.681 82.3973 132.964L81.0223 132.589C81.4723 131.539 82.1889 130.706 83.1723 130.089C84.1723 129.473 85.3139 129.164 86.5973 129.164ZM102.366 143.014C100.832 143.014 99.4823 142.714 98.3156 142.114C97.1656 141.514 96.274 140.698 95.6406 139.664C95.0073 138.614 94.6906 137.423 94.6906 136.089C94.6906 134.739 94.999 133.548 95.6156 132.514C96.249 131.464 97.1073 130.648 98.1906 130.064C99.274 129.464 100.499 129.164 101.866 129.164C103.182 129.164 104.366 129.448 105.416 130.014C106.482 130.564 107.324 131.364 107.941 132.414C108.557 133.448 108.866 134.689 108.866 136.139C108.866 136.289 108.857 136.464 108.841 136.664C108.824 136.848 108.807 137.023 108.791 137.189H97.8656V134.914H106.741L105.241 135.589C105.241 134.889 105.099 134.281 104.816 133.764C104.532 133.248 104.141 132.848 103.641 132.564C103.141 132.264 102.557 132.114 101.891 132.114C101.224 132.114 100.632 132.264 100.116 132.564C99.6156 132.848 99.224 133.256 98.9406 133.789C98.6573 134.306 98.5156 134.923 98.5156 135.639V136.239C98.5156 136.973 98.674 137.623 98.9906 138.189C99.324 138.739 99.7823 139.164 100.366 139.464C100.966 139.748 101.666 139.889 102.466 139.889C103.182 139.889 103.807 139.781 104.341 139.564C104.891 139.348 105.391 139.023 105.841 138.589L107.916 140.839C107.299 141.539 106.524 142.081 105.591 142.464C104.657 142.831 103.582 143.014 102.366 143.014ZM127.192 143.114C125.842 143.114 124.584 142.898 123.417 142.464C122.267 142.014 121.267 141.381 120.417 140.564C119.567 139.748 118.901 138.789 118.417 137.689C117.951 136.589 117.717 135.381 117.717 134.064C117.717 132.748 117.951 131.539 118.417 130.439C118.901 129.339 119.567 128.381 120.417 127.564C121.284 126.748 122.292 126.123 123.442 125.689C124.592 125.239 125.851 125.014 127.217 125.014C128.734 125.014 130.101 125.281 131.317 125.814C132.551 126.331 133.584 127.098 134.417 128.114L131.817 130.514C131.217 129.831 130.551 129.323 129.817 128.989C129.084 128.639 128.284 128.464 127.417 128.464C126.601 128.464 125.851 128.598 125.167 128.864C124.484 129.131 123.892 129.514 123.392 130.014C122.892 130.514 122.501 131.106 122.217 131.789C121.951 132.473 121.817 133.231 121.817 134.064C121.817 134.898 121.951 135.656 122.217 136.339C122.501 137.023 122.892 137.614 123.392 138.114C123.892 138.614 124.484 138.998 125.167 139.264C125.851 139.531 126.601 139.664 127.417 139.664C128.284 139.664 129.084 139.498 129.817 139.164C130.551 138.814 131.217 138.289 131.817 137.589L134.417 139.989C133.584 141.006 132.551 141.781 131.317 142.314C130.101 142.848 128.726 143.114 127.192 143.114ZM142.813 143.014C141.38 143.014 140.105 142.714 138.988 142.114C137.888 141.514 137.013 140.698 136.363 139.664C135.73 138.614 135.413 137.423 135.413 136.089C135.413 134.739 135.73 133.548 136.363 132.514C137.013 131.464 137.888 130.648 138.988 130.064C140.105 129.464 141.38 129.164 142.813 129.164C144.23 129.164 145.497 129.464 146.613 130.064C147.73 130.648 148.605 131.456 149.238 132.489C149.872 133.523 150.188 134.723 150.188 136.089C150.188 137.423 149.872 138.614 149.238 139.664C148.605 140.698 147.73 141.514 146.613 142.114C145.497 142.714 144.23 143.014 142.813 143.014ZM142.813 139.814C143.463 139.814 144.047 139.664 144.563 139.364C145.08 139.064 145.488 138.639 145.788 138.089C146.088 137.523 146.238 136.856 146.238 136.089C146.238 135.306 146.088 134.639 145.788 134.089C145.488 133.539 145.08 133.114 144.563 132.814C144.047 132.514 143.463 132.364 142.813 132.364C142.163 132.364 141.58 132.514 141.063 132.814C140.547 133.114 140.13 133.539 139.813 134.089C139.513 134.639 139.363 135.306 139.363 136.089C139.363 136.856 139.513 137.523 139.813 138.089C140.13 138.639 140.547 139.064 141.063 139.364C141.58 139.664 142.163 139.814 142.813 139.814ZM170.02 129.164C171.087 129.164 172.028 129.381 172.845 129.814C173.678 130.231 174.328 130.881 174.795 131.764C175.278 132.631 175.52 133.748 175.52 135.114V142.814H171.62V135.714C171.62 134.631 171.395 133.831 170.945 133.314C170.495 132.798 169.862 132.539 169.045 132.539C168.478 132.539 167.97 132.673 167.52 132.939C167.07 133.189 166.72 133.573 166.47 134.089C166.22 134.606 166.095 135.264 166.095 136.064V142.814H162.195V135.714C162.195 134.631 161.97 133.831 161.52 133.314C161.087 132.798 160.462 132.539 159.645 132.539C159.078 132.539 158.57 132.673 158.12 132.939C157.67 133.189 157.32 133.573 157.07 134.089C156.82 134.606 156.695 135.264 156.695 136.064V142.814H152.795V129.364H156.52V133.039L155.82 131.964C156.287 131.048 156.945 130.356 157.795 129.889C158.662 129.406 159.645 129.164 160.745 129.164C161.978 129.164 163.053 129.481 163.97 130.114C164.903 130.731 165.52 131.681 165.82 132.964L164.445 132.589C164.895 131.539 165.612 130.706 166.595 130.089C167.595 129.473 168.737 129.164 170.02 129.164ZM186.966 143.014C185.832 143.014 184.841 142.764 183.991 142.264C183.141 141.764 182.474 141.006 181.991 139.989C181.524 138.956 181.291 137.656 181.291 136.089C181.291 134.506 181.516 133.206 181.966 132.189C182.416 131.173 183.066 130.414 183.916 129.914C184.766 129.414 185.782 129.164 186.966 129.164C188.232 129.164 189.366 129.456 190.366 130.039C191.382 130.606 192.182 131.406 192.766 132.439C193.366 133.473 193.666 134.689 193.666 136.089C193.666 137.506 193.366 138.731 192.766 139.764C192.182 140.798 191.382 141.598 190.366 142.164C189.366 142.731 188.232 143.014 186.966 143.014ZM179.016 147.664V129.364H182.741V132.114L182.666 136.114L182.916 140.089V147.664H179.016ZM186.291 139.814C186.941 139.814 187.516 139.664 188.016 139.364C188.532 139.064 188.941 138.639 189.241 138.089C189.557 137.523 189.716 136.856 189.716 136.089C189.716 135.306 189.557 134.639 189.241 134.089C188.941 133.539 188.532 133.114 188.016 132.814C187.516 132.514 186.941 132.364 186.291 132.364C185.641 132.364 185.057 132.514 184.541 132.814C184.024 133.114 183.616 133.539 183.316 134.089C183.016 134.639 182.866 135.306 182.866 136.089C182.866 136.856 183.016 137.523 183.316 138.089C183.616 138.639 184.024 139.064 184.541 139.364C185.057 139.664 185.641 139.814 186.291 139.814ZM196.277 142.814V124.264H200.177V142.814H196.277ZM210.471 143.014C208.938 143.014 207.588 142.714 206.421 142.114C205.271 141.514 204.379 140.698 203.746 139.664C203.113 138.614 202.796 137.423 202.796 136.089C202.796 134.739 203.104 133.548 203.721 132.514C204.354 131.464 205.213 130.648 206.296 130.064C207.379 129.464 208.604 129.164 209.971 129.164C211.288 129.164 212.471 129.448 213.521 130.014C214.588 130.564 215.429 131.364 216.046 132.414C216.663 133.448 216.971 134.689 216.971 136.139C216.971 136.289 216.963 136.464 216.946 136.664C216.929 136.848 216.913 137.023 216.896 137.189H205.971V134.914H214.846L213.346 135.589C213.346 134.889 213.204 134.281 212.921 133.764C212.638 133.248 212.246 132.848 211.746 132.564C211.246 132.264 210.663 132.114 209.996 132.114C209.329 132.114 208.738 132.264 208.221 132.564C207.721 132.848 207.329 133.256 207.046 133.789C206.763 134.306 206.621 134.923 206.621 135.639V136.239C206.621 136.973 206.779 137.623 207.096 138.189C207.429 138.739 207.888 139.164 208.471 139.464C209.071 139.748 209.771 139.889 210.571 139.889C211.288 139.889 211.913 139.781 212.446 139.564C212.996 139.348 213.496 139.023 213.946 138.589L216.021 140.839C215.404 141.539 214.629 142.081 213.696 142.464C212.763 142.831 211.688 143.014 210.471 143.014ZM225.068 143.014C223.484 143.014 222.251 142.614 221.368 141.814C220.484 140.998 220.043 139.789 220.043 138.189V126.389H223.943V138.139C223.943 138.706 224.093 139.148 224.393 139.464C224.693 139.764 225.101 139.914 225.618 139.914C226.234 139.914 226.759 139.748 227.193 139.414L228.243 142.164C227.843 142.448 227.359 142.664 226.793 142.814C226.243 142.948 225.668 143.014 225.068 143.014ZM217.968 132.664V129.664H227.293V132.664H217.968ZM236.417 143.014C234.983 143.014 233.708 142.714 232.592 142.114C231.492 141.514 230.617 140.698 229.967 139.664C229.333 138.614 229.017 137.423 229.017 136.089C229.017 134.739 229.333 133.548 229.967 132.514C230.617 131.464 231.492 130.648 232.592 130.064C233.708 129.464 234.983 129.164 236.417 129.164C237.833 129.164 239.1 129.464 240.217 130.064C241.333 130.648 242.208 131.456 242.842 132.489C243.475 133.523 243.792 134.723 243.792 136.089C243.792 137.423 243.475 138.614 242.842 139.664C242.208 140.698 241.333 141.514 240.217 142.114C239.1 142.714 237.833 143.014 236.417 143.014ZM236.417 139.814C237.067 139.814 237.65 139.664 238.167 139.364C238.683 139.064 239.092 138.639 239.392 138.089C239.692 137.523 239.842 136.856 239.842 136.089C239.842 135.306 239.692 134.639 239.392 134.089C239.092 133.539 238.683 133.114 238.167 132.814C237.65 132.514 237.067 132.364 236.417 132.364C235.767 132.364 235.183 132.514 234.667 132.814C234.15 133.114 233.733 133.539 233.417 134.089C233.117 134.639 232.967 135.306 232.967 136.089C232.967 136.856 233.117 137.523 233.417 138.089C233.733 138.639 234.15 139.064 234.667 139.364C235.183 139.664 235.767 139.814 236.417 139.814ZM41.45 233.114C40.1 233.114 38.8417 232.898 37.675 232.464C36.525 232.014 35.525 231.381 34.675 230.564C33.825 229.748 33.1583 228.789 32.675 227.689C32.2083 226.589 31.975 225.381 31.975 224.064C31.975 222.748 32.2083 221.539 32.675 220.439C33.1583 219.339 33.825 218.381 34.675 217.564C35.5417 216.748 36.55 216.123 37.7 215.689C38.85 215.239 40.1083 215.014 41.475 215.014C42.9917 215.014 44.3583 215.281 45.575 215.814C46.8083 216.331 47.8417 217.098 48.675 218.114L46.075 220.514C45.475 219.831 44.8083 219.323 44.075 218.989C43.3417 218.639 42.5417 218.464 41.675 218.464C40.8583 218.464 40.1083 218.598 39.425 218.864C38.7417 219.131 38.15 219.514 37.65 220.014C37.15 220.514 36.7583 221.106 36.475 221.789C36.2083 222.473 36.075 223.231 36.075 224.064C36.075 224.898 36.2083 225.656 36.475 226.339C36.7583 227.023 37.15 227.614 37.65 228.114C38.15 228.614 38.7417 228.998 39.425 229.264C40.1083 229.531 40.8583 229.664 41.675 229.664C42.5417 229.664 43.3417 229.498 44.075 229.164C44.8083 228.814 45.475 228.289 46.075 227.589L48.675 229.989C47.8417 231.006 46.8083 231.781 45.575 232.314C44.3583 232.848 42.9833 233.114 41.45 233.114ZM51.41 232.814V215.314H58.985C60.5516 215.314 61.9016 215.573 63.035 216.089C64.1683 216.589 65.0433 217.314 65.66 218.264C66.2766 219.214 66.585 220.348 66.585 221.664C66.585 222.964 66.2766 224.089 65.66 225.039C65.0433 225.989 64.1683 226.723 63.035 227.239C61.9016 227.739 60.5516 227.989 58.985 227.989H53.66L55.46 226.164V232.814H51.41ZM55.46 226.614L53.66 224.689H58.76C60.01 224.689 60.9433 224.423 61.56 223.889C62.1766 223.356 62.485 222.614 62.485 221.664C62.485 220.698 62.1766 219.948 61.56 219.414C60.9433 218.881 60.01 218.614 58.76 218.614H53.66L55.46 216.689V226.614ZM73.2264 223.189H81.6264V226.439H73.2264V223.189ZM73.5264 232.814H69.4764V215.314H82.7014V218.564H73.5264V232.814ZM33.075 322.814V305.314H36.425L43.875 317.664H42.1L49.425 305.314H52.75L52.8 322.814H49L48.975 311.139H49.675L43.825 320.964H42L36.025 311.139H36.875V322.814H33.075ZM64.927 322.814V320.189L64.677 319.614V314.914C64.677 314.081 64.4186 313.431 63.902 312.964C63.402 312.498 62.627 312.264 61.577 312.264C60.8603 312.264 60.152 312.381 59.452 312.614C58.7686 312.831 58.1853 313.131 57.702 313.514L56.302 310.789C57.0353 310.273 57.9186 309.873 58.952 309.589C59.9853 309.306 61.0353 309.164 62.102 309.164C64.152 309.164 65.7436 309.648 66.877 310.614C68.0103 311.581 68.577 313.089 68.577 315.139V322.814H64.927ZM60.827 323.014C59.777 323.014 58.877 322.839 58.127 322.489C57.377 322.123 56.802 321.631 56.402 321.014C56.002 320.398 55.802 319.706 55.802 318.939C55.802 318.139 55.9936 317.439 56.377 316.839C56.777 316.239 57.402 315.773 58.252 315.439C59.102 315.089 60.2103 314.914 61.577 314.914H65.152V317.189H62.002C61.0853 317.189 60.452 317.339 60.102 317.639C59.7686 317.939 59.602 318.314 59.602 318.764C59.602 319.264 59.7936 319.664 60.177 319.964C60.577 320.248 61.1186 320.389 61.802 320.389C62.452 320.389 63.0353 320.239 63.552 319.939C64.0686 319.623 64.4436 319.164 64.677 318.564L65.277 320.364C64.9936 321.231 64.477 321.889 63.727 322.339C62.977 322.789 62.0103 323.014 60.827 323.014ZM77.6066 323.014C76.0233 323.014 74.79 322.614 73.9066 321.814C73.0233 320.998 72.5816 319.789 72.5816 318.189V306.389H76.4816V318.139C76.4816 318.706 76.6316 319.148 76.9316 319.464C77.2316 319.764 77.64 319.914 78.1566 319.914C78.7733 319.914 79.2983 319.748 79.7316 319.414L80.7816 322.164C80.3816 322.448 79.8983 322.664 79.3316 322.814C78.7816 322.948 78.2066 323.014 77.6066 323.014ZM70.5066 312.664V309.664H79.8316V312.664H70.5066ZM82.9709 322.814V309.364H86.6959V313.164L86.1709 312.064C86.5709 311.114 87.2126 310.398 88.0959 309.914C88.9792 309.414 90.0542 309.164 91.3209 309.164V312.764C91.1542 312.748 91.0042 312.739 90.8709 312.739C90.7376 312.723 90.5959 312.714 90.4459 312.714C89.3792 312.714 88.5126 313.023 87.8459 313.639C87.1959 314.239 86.8709 315.181 86.8709 316.464V322.814H82.9709ZM93.6643 322.814V309.364H97.5643V322.814H93.6643ZM93.3393 307.639L96.7143 304.039H100.914L96.3893 307.639H93.3393ZM107.684 323.014C106.234 323.014 104.942 322.723 103.809 322.139C102.675 321.539 101.784 320.714 101.134 319.664C100.5 318.614 100.184 317.423 100.184 316.089C100.184 314.739 100.5 313.548 101.134 312.514C101.784 311.464 102.675 310.648 103.809 310.064C104.942 309.464 106.234 309.164 107.684 309.164C109.1 309.164 110.334 309.464 111.384 310.064C112.434 310.648 113.209 311.489 113.709 312.589L110.684 314.214C110.334 313.581 109.892 313.114 109.359 312.814C108.842 312.514 108.275 312.364 107.659 312.364C106.992 312.364 106.392 312.514 105.859 312.814C105.325 313.114 104.9 313.539 104.584 314.089C104.284 314.639 104.134 315.306 104.134 316.089C104.134 316.873 104.284 317.539 104.584 318.089C104.9 318.639 105.325 319.064 105.859 319.364C106.392 319.664 106.992 319.814 107.659 319.814C108.275 319.814 108.842 319.673 109.359 319.389C109.892 319.089 110.334 318.614 110.684 317.964L113.709 319.614C113.209 320.698 112.434 321.539 111.384 322.139C110.334 322.723 109.1 323.014 107.684 323.014ZM121.629 323.014C120.513 323.014 119.513 322.798 118.629 322.364C117.763 321.931 117.088 321.273 116.604 320.389C116.121 319.489 115.879 318.348 115.879 316.964V309.364H119.779V316.389C119.779 317.506 120.013 318.331 120.479 318.864C120.963 319.381 121.638 319.639 122.504 319.639C123.104 319.639 123.638 319.514 124.104 319.264C124.571 318.998 124.938 318.598 125.204 318.064C125.471 317.514 125.604 316.831 125.604 316.014V309.364H129.504V322.814H125.804V319.114L126.479 320.189C126.029 321.123 125.363 321.831 124.479 322.314C123.613 322.781 122.663 323.014 121.629 323.014ZM133.117 322.814V304.264H137.017V322.814H133.117ZM148.887 322.814V320.189L148.637 319.614V314.914C148.637 314.081 148.379 313.431 147.862 312.964C147.362 312.498 146.587 312.264 145.537 312.264C144.82 312.264 144.112 312.381 143.412 312.614C142.729 312.831 142.145 313.131 141.662 313.514L140.262 310.789C140.995 310.273 141.879 309.873 142.912 309.589C143.945 309.306 144.995 309.164 146.062 309.164C148.112 309.164 149.704 309.648 150.837 310.614C151.97 311.581 152.537 313.089 152.537 315.139V322.814H148.887ZM144.787 323.014C143.737 323.014 142.837 322.839 142.087 322.489C141.337 322.123 140.762 321.631 140.362 321.014C139.962 320.398 139.762 319.706 139.762 318.939C139.762 318.139 139.954 317.439 140.337 316.839C140.737 316.239 141.362 315.773 142.212 315.439C143.062 315.089 144.17 314.914 145.537 314.914H149.112V317.189H145.962C145.045 317.189 144.412 317.339 144.062 317.639C143.729 317.939 143.562 318.314 143.562 318.764C143.562 319.264 143.754 319.664 144.137 319.964C144.537 320.248 145.079 320.389 145.762 320.389C146.412 320.389 146.995 320.239 147.512 319.939C148.029 319.623 148.404 319.164 148.637 318.564L149.237 320.364C148.954 321.231 148.437 321.889 147.687 322.339C146.937 322.789 145.97 323.014 144.787 323.014ZM38.825 413.114C37.425 413.114 36.0833 412.931 34.8 412.564C33.5167 412.181 32.4833 411.689 31.7 411.089L33.075 408.039C33.825 408.573 34.7083 409.014 35.725 409.364C36.7583 409.698 37.8 409.864 38.85 409.864C39.65 409.864 40.2917 409.789 40.775 409.639C41.275 409.473 41.6417 409.248 41.875 408.964C42.1083 408.681 42.225 408.356 42.225 407.989C42.225 407.523 42.0417 407.156 41.675 406.889C41.3083 406.606 40.825 406.381 40.225 406.214C39.625 406.031 38.9583 405.864 38.225 405.714C37.5083 405.548 36.7833 405.348 36.05 405.114C35.3333 404.881 34.675 404.581 34.075 404.214C33.475 403.848 32.9833 403.364 32.6 402.764C32.2333 402.164 32.05 401.398 32.05 400.464C32.05 399.464 32.3167 398.556 32.85 397.739C33.4 396.906 34.2167 396.248 35.3 395.764C36.4 395.264 37.775 395.014 39.425 395.014C40.525 395.014 41.6083 395.148 42.675 395.414C43.7417 395.664 44.6833 396.048 45.5 396.564L44.25 399.639C43.4333 399.173 42.6167 398.831 41.8 398.614C40.9833 398.381 40.1833 398.264 39.4 398.264C38.6167 398.264 37.975 398.356 37.475 398.539C36.975 398.723 36.6167 398.964 36.4 399.264C36.1833 399.548 36.075 399.881 36.075 400.264C36.075 400.714 36.2583 401.081 36.625 401.364C36.9917 401.631 37.475 401.848 38.075 402.014C38.675 402.181 39.3333 402.348 40.05 402.514C40.7833 402.681 41.5083 402.873 42.225 403.089C42.9583 403.306 43.625 403.598 44.225 403.964C44.825 404.331 45.3083 404.814 45.675 405.414C46.0583 406.014 46.25 406.773 46.25 407.689C46.25 408.673 45.975 409.573 45.425 410.389C44.875 411.206 44.05 411.864 42.95 412.364C41.8667 412.864 40.4917 413.114 38.825 413.114ZM55.4174 413.014C53.884 413.014 52.534 412.714 51.3674 412.114C50.2174 411.514 49.3257 410.698 48.6924 409.664C48.059 408.614 47.7424 407.423 47.7424 406.089C47.7424 404.739 48.0507 403.548 48.6674 402.514C49.3007 401.464 50.159 400.648 51.2424 400.064C52.3257 399.464 53.5507 399.164 54.9174 399.164C56.2341 399.164 57.4174 399.448 58.4674 400.014C59.5341 400.564 60.3757 401.364 60.9924 402.414C61.6091 403.448 61.9174 404.689 61.9174 406.139C61.9174 406.289 61.9091 406.464 61.8924 406.664C61.8757 406.848 61.859 407.023 61.8424 407.189H50.9174V404.914H59.7924L58.2924 405.589C58.2924 404.889 58.1507 404.281 57.8674 403.764C57.584 403.248 57.1924 402.848 56.6924 402.564C56.1924 402.264 55.609 402.114 54.9424 402.114C54.2757 402.114 53.684 402.264 53.1674 402.564C52.6674 402.848 52.2757 403.256 51.9924 403.789C51.709 404.306 51.5674 404.923 51.5674 405.639V406.239C51.5674 406.973 51.7257 407.623 52.0424 408.189C52.3757 408.739 52.834 409.164 53.4174 409.464C54.0174 409.748 54.7174 409.889 55.5174 409.889C56.234 409.889 56.859 409.781 57.3924 409.564C57.9424 409.348 58.4424 409.023 58.8924 408.589L60.9674 410.839C60.3507 411.539 59.5757 412.081 58.6424 412.464C57.7091 412.831 56.6341 413.014 55.4174 413.014ZM72.6889 399.164C73.7555 399.164 74.7055 399.381 75.5389 399.814C76.3889 400.231 77.0555 400.881 77.5389 401.764C78.0222 402.631 78.2639 403.748 78.2639 405.114V412.814H74.3639V405.714C74.3639 404.631 74.1222 403.831 73.6389 403.314C73.1722 402.798 72.5055 402.539 71.6389 402.539C71.0222 402.539 70.4639 402.673 69.9639 402.939C69.4805 403.189 69.0972 403.581 68.8139 404.114C68.5472 404.648 68.4139 405.331 68.4139 406.164V412.814H64.5139V399.364H68.2389V403.089L67.5389 401.964C68.0222 401.064 68.7139 400.373 69.6139 399.889C70.5139 399.406 71.5389 399.164 72.6889 399.164ZM89.974 399.164C91.0407 399.164 91.9907 399.381 92.824 399.814C93.674 400.231 94.3407 400.881 94.824 401.764C95.3074 402.631 95.549 403.748 95.549 405.114V412.814H91.649V405.714C91.649 404.631 91.4074 403.831 90.924 403.314C90.4574 402.798 89.7907 402.539 88.924 402.539C88.3074 402.539 87.749 402.673 87.249 402.939C86.7657 403.189 86.3824 403.581 86.099 404.114C85.8324 404.648 85.699 405.331 85.699 406.164V412.814H81.799V394.264H85.699V403.089L84.824 401.964C85.3074 401.064 85.999 400.373 86.899 399.889C87.799 399.406 88.824 399.164 89.974 399.164ZM107.334 412.814V410.189L107.084 409.614V404.914C107.084 404.081 106.826 403.431 106.309 402.964C105.809 402.498 105.034 402.264 103.984 402.264C103.268 402.264 102.559 402.381 101.859 402.614C101.176 402.831 100.593 403.131 100.109 403.514L98.7092 400.789C99.4425 400.273 100.326 399.873 101.359 399.589C102.393 399.306 103.443 399.164 104.509 399.164C106.559 399.164 108.151 399.648 109.284 400.614C110.418 401.581 110.984 403.089 110.984 405.139V412.814H107.334ZM103.234 413.014C102.184 413.014 101.284 412.839 100.534 412.489C99.7842 412.123 99.2092 411.631 98.8092 411.014C98.4092 410.398 98.2092 409.706 98.2092 408.939C98.2092 408.139 98.4008 407.439 98.7842 406.839C99.1842 406.239 99.8092 405.773 100.659 405.439C101.509 405.089 102.618 404.914 103.984 404.914H107.559V407.189H104.409C103.493 407.189 102.859 407.339 102.509 407.639C102.176 407.939 102.009 408.314 102.009 408.764C102.009 409.264 102.201 409.664 102.584 409.964C102.984 410.248 103.526 410.389 104.209 410.389C104.859 410.389 105.443 410.239 105.959 409.939C106.476 409.623 106.851 409.164 107.084 408.564L107.684 410.364C107.401 411.231 106.884 411.889 106.134 412.339C105.384 412.789 104.418 413.014 103.234 413.014ZM41.45 503.114C40.1 503.114 38.8417 502.898 37.675 502.464C36.525 502.014 35.525 501.381 34.675 500.564C33.825 499.748 33.1583 498.789 32.675 497.689C32.2083 496.589 31.975 495.381 31.975 494.064C31.975 492.748 32.2083 491.539 32.675 490.439C33.1583 489.339 33.825 488.381 34.675 487.564C35.5417 486.748 36.55 486.123 37.7 485.689C38.85 485.239 40.1083 485.014 41.475 485.014C42.9917 485.014 44.3583 485.281 45.575 485.814C46.8083 486.331 47.8417 487.098 48.675 488.114L46.075 490.514C45.475 489.831 44.8083 489.323 44.075 488.989C43.3417 488.639 42.5417 488.464 41.675 488.464C40.8583 488.464 40.1083 488.598 39.425 488.864C38.7417 489.131 38.15 489.514 37.65 490.014C37.15 490.514 36.7583 491.106 36.475 491.789C36.2083 492.473 36.075 493.231 36.075 494.064C36.075 494.898 36.2083 495.656 36.475 496.339C36.7583 497.023 37.15 497.614 37.65 498.114C38.15 498.614 38.7417 498.998 39.425 499.264C40.1083 499.531 40.8583 499.664 41.675 499.664C42.5417 499.664 43.3417 499.498 44.075 499.164C44.8083 498.814 45.475 498.289 46.075 497.589L48.675 499.989C47.8417 501.006 46.8083 501.781 45.575 502.314C44.3583 502.848 42.9833 503.114 41.45 503.114ZM57.0711 503.014C55.6378 503.014 54.3628 502.714 53.2461 502.114C52.1461 501.514 51.2711 500.698 50.6211 499.664C49.9878 498.614 49.6711 497.423 49.6711 496.089C49.6711 494.739 49.9878 493.548 50.6211 492.514C51.2711 491.464 52.1461 490.648 53.2461 490.064C54.3628 489.464 55.6378 489.164 57.0711 489.164C58.4878 489.164 59.7544 489.464 60.8711 490.064C61.9878 490.648 62.8628 491.456 63.4961 492.489C64.1294 493.523 64.4461 494.723 64.4461 496.089C64.4461 497.423 64.1294 498.614 63.4961 499.664C62.8628 500.698 61.9878 501.514 60.8711 502.114C59.7544 502.714 58.4878 503.014 57.0711 503.014ZM57.0711 499.814C57.7211 499.814 58.3044 499.664 58.8211 499.364C59.3378 499.064 59.7461 498.639 60.0461 498.089C60.3461 497.523 60.4961 496.856 60.4961 496.089C60.4961 495.306 60.3461 494.639 60.0461 494.089C59.7461 493.539 59.3378 493.114 58.8211 492.814C58.3044 492.514 57.7211 492.364 57.0711 492.364C56.4211 492.364 55.8378 492.514 55.3211 492.814C54.8044 493.114 54.3878 493.539 54.0711 494.089C53.7711 494.639 53.6211 495.306 53.6211 496.089C53.6211 496.856 53.7711 497.523 54.0711 498.089C54.3878 498.639 54.8044 499.064 55.3211 499.364C55.8378 499.664 56.4211 499.814 57.0711 499.814ZM75.2279 489.164C76.2946 489.164 77.2446 489.381 78.0779 489.814C78.9279 490.231 79.5946 490.881 80.0779 491.764C80.5613 492.631 80.8029 493.748 80.8029 495.114V502.814H76.9029V495.714C76.9029 494.631 76.6613 493.831 76.1779 493.314C75.7113 492.798 75.0446 492.539 74.1779 492.539C73.5613 492.539 73.0029 492.673 72.5029 492.939C72.0196 493.189 71.6363 493.581 71.3529 494.114C71.0863 494.648 70.9529 495.331 70.9529 496.164V502.814H67.0529V489.364H70.7779V493.089L70.0779 491.964C70.5613 491.064 71.2529 490.373 72.1529 489.889C73.0529 489.406 74.0779 489.164 75.2279 489.164ZM84.8131 502.814V489.064C84.8131 487.548 85.2631 486.339 86.1631 485.439C87.0631 484.523 88.3464 484.064 90.0131 484.064C90.5798 484.064 91.1214 484.123 91.6381 484.239C92.1714 484.356 92.6214 484.539 92.9881 484.789L91.9631 487.614C91.7464 487.464 91.5048 487.348 91.2381 487.264C90.9714 487.181 90.6881 487.139 90.3881 487.139C89.8214 487.139 89.3798 487.306 89.0631 487.639C88.7631 487.956 88.6131 488.439 88.6131 489.089V490.339L88.7131 492.014V502.814H84.8131ZM82.7381 492.664V489.664H92.0631V492.664H82.7381ZM94.2631 502.814V489.364H98.1631V502.814H94.2631ZM96.2131 487.489C95.4964 487.489 94.9131 487.281 94.4631 486.864C94.0131 486.448 93.7881 485.931 93.7881 485.314C93.7881 484.698 94.0131 484.181 94.4631 483.764C94.9131 483.348 95.4964 483.139 96.2131 483.139C96.9298 483.139 97.5131 483.339 97.9631 483.739C98.4131 484.123 98.6381 484.623 98.6381 485.239C98.6381 485.889 98.4131 486.431 97.9631 486.864C97.5298 487.281 96.9464 487.489 96.2131 487.489ZM101.77 502.814V489.364H105.495V493.164L104.97 492.064C105.37 491.114 106.011 490.398 106.895 489.914C107.778 489.414 108.853 489.164 110.12 489.164V492.764C109.953 492.748 109.803 492.739 109.67 492.739C109.536 492.723 109.395 492.714 109.245 492.714C108.178 492.714 107.311 493.023 106.645 493.639C105.995 494.239 105.67 495.181 105.67 496.464V502.814H101.77ZM129.688 489.164C130.755 489.164 131.696 489.381 132.513 489.814C133.346 490.231 133.996 490.881 134.463 491.764C134.946 492.631 135.188 493.748 135.188 495.114V502.814H131.288V495.714C131.288 494.631 131.063 493.831 130.613 493.314C130.163 492.798 129.53 492.539 128.713 492.539C128.146 492.539 127.638 492.673 127.188 492.939C126.738 493.189 126.388 493.573 126.138 494.089C125.888 494.606 125.763 495.264 125.763 496.064V502.814H121.863V495.714C121.863 494.631 121.638 493.831 121.188 493.314C120.755 492.798 120.13 492.539 119.313 492.539C118.746 492.539 118.238 492.673 117.788 492.939C117.338 493.189 116.988 493.573 116.738 494.089C116.488 494.606 116.363 495.264 116.363 496.064V502.814H112.463V489.364H116.188V493.039L115.488 491.964C115.955 491.048 116.613 490.356 117.463 489.889C118.33 489.406 119.313 489.164 120.413 489.164C121.646 489.164 122.721 489.481 123.638 490.114C124.571 490.731 125.188 491.681 125.488 492.964L124.113 492.589C124.563 491.539 125.28 490.706 126.263 490.089C127.263 489.473 128.405 489.164 129.688 489.164ZM146.934 502.814V500.189L146.684 499.614V494.914C146.684 494.081 146.425 493.431 145.909 492.964C145.409 492.498 144.634 492.264 143.584 492.264C142.867 492.264 142.159 492.381 141.459 492.614C140.775 492.831 140.192 493.131 139.709 493.514L138.309 490.789C139.042 490.273 139.925 489.873 140.959 489.589C141.992 489.306 143.042 489.164 144.109 489.164C146.159 489.164 147.75 489.648 148.884 490.614C150.017 491.581 150.584 493.089 150.584 495.139V502.814H146.934ZM142.834 503.014C141.784 503.014 140.884 502.839 140.134 502.489C139.384 502.123 138.809 501.631 138.409 501.014C138.009 500.398 137.809 499.706 137.809 498.939C137.809 498.139 138 497.439 138.384 496.839C138.784 496.239 139.409 495.773 140.259 495.439C141.109 495.089 142.217 494.914 143.584 494.914H147.159V497.189H144.009C143.092 497.189 142.459 497.339 142.109 497.639C141.775 497.939 141.609 498.314 141.609 498.764C141.609 499.264 141.8 499.664 142.184 499.964C142.584 500.248 143.125 500.389 143.809 500.389C144.459 500.389 145.042 500.239 145.559 499.939C146.075 499.623 146.45 499.164 146.684 498.564L147.284 500.364C147 501.231 146.484 501.889 145.734 502.339C144.984 502.789 144.017 503.014 142.834 503.014ZM154.113 502.814V489.364H157.838V493.164L157.313 492.064C157.713 491.114 158.355 490.398 159.238 489.914C160.122 489.414 161.197 489.164 162.463 489.164V492.764C162.297 492.748 162.147 492.739 162.013 492.739C161.88 492.723 161.738 492.714 161.588 492.714C160.522 492.714 159.655 493.023 158.988 493.639C158.338 494.239 158.013 495.181 158.013 496.464V502.814H154.113ZM177.985 503.114C176.585 503.114 175.243 502.931 173.96 502.564C172.677 502.181 171.643 501.689 170.86 501.089L172.235 498.039C172.985 498.573 173.868 499.014 174.885 499.364C175.918 499.698 176.96 499.864 178.01 499.864C178.81 499.864 179.452 499.789 179.935 499.639C180.435 499.473 180.802 499.248 181.035 498.964C181.268 498.681 181.385 498.356 181.385 497.989C181.385 497.523 181.202 497.156 180.835 496.889C180.468 496.606 179.985 496.381 179.385 496.214C178.785 496.031 178.118 495.864 177.385 495.714C176.668 495.548 175.943 495.348 175.21 495.114C174.493 494.881 173.835 494.581 173.235 494.214C172.635 493.848 172.143 493.364 171.76 492.764C171.393 492.164 171.21 491.398 171.21 490.464C171.21 489.464 171.477 488.556 172.01 487.739C172.56 486.906 173.377 486.248 174.46 485.764C175.56 485.264 176.935 485.014 178.585 485.014C179.685 485.014 180.768 485.148 181.835 485.414C182.902 485.664 183.843 486.048 184.66 486.564L183.41 489.639C182.593 489.173 181.777 488.831 180.96 488.614C180.143 488.381 179.343 488.264 178.56 488.264C177.777 488.264 177.135 488.356 176.635 488.539C176.135 488.723 175.777 488.964 175.56 489.264C175.343 489.548 175.235 489.881 175.235 490.264C175.235 490.714 175.418 491.081 175.785 491.364C176.152 491.631 176.635 491.848 177.235 492.014C177.835 492.181 178.493 492.348 179.21 492.514C179.943 492.681 180.668 492.873 181.385 493.089C182.118 493.306 182.785 493.598 183.385 493.964C183.985 494.331 184.468 494.814 184.835 495.414C185.218 496.014 185.41 496.773 185.41 497.689C185.41 498.673 185.135 499.573 184.585 500.389C184.035 501.206 183.21 501.864 182.11 502.364C181.027 502.864 179.652 503.114 177.985 503.114ZM194.578 503.014C193.044 503.014 191.694 502.714 190.528 502.114C189.378 501.514 188.486 500.698 187.853 499.664C187.219 498.614 186.903 497.423 186.903 496.089C186.903 494.739 187.211 493.548 187.828 492.514C188.461 491.464 189.319 490.648 190.403 490.064C191.486 489.464 192.711 489.164 194.078 489.164C195.394 489.164 196.578 489.448 197.628 490.014C198.694 490.564 199.536 491.364 200.153 492.414C200.769 493.448 201.078 494.689 201.078 496.139C201.078 496.289 201.069 496.464 201.053 496.664C201.036 496.848 201.019 497.023 201.003 497.189H190.078V494.914H198.953L197.453 495.589C197.453 494.889 197.311 494.281 197.028 493.764C196.744 493.248 196.353 492.848 195.853 492.564C195.353 492.264 194.769 492.114 194.103 492.114C193.436 492.114 192.844 492.264 192.328 492.564C191.828 492.848 191.436 493.256 191.153 493.789C190.869 494.306 190.728 494.923 190.728 495.639V496.239C190.728 496.973 190.886 497.623 191.203 498.189C191.536 498.739 191.994 499.164 192.578 499.464C193.178 499.748 193.878 499.889 194.678 499.889C195.394 499.889 196.019 499.781 196.553 499.564C197.103 499.348 197.603 499.023 198.053 498.589L200.128 500.839C199.511 501.539 198.736 502.081 197.803 502.464C196.869 502.831 195.794 503.014 194.578 503.014ZM211.849 489.164C212.916 489.164 213.866 489.381 214.699 489.814C215.549 490.231 216.216 490.881 216.699 491.764C217.182 492.631 217.424 493.748 217.424 495.114V502.814H213.524V495.714C213.524 494.631 213.282 493.831 212.799 493.314C212.332 492.798 211.666 492.539 210.799 492.539C210.182 492.539 209.624 492.673 209.124 492.939C208.641 493.189 208.257 493.581 207.974 494.114C207.707 494.648 207.574 495.331 207.574 496.164V502.814H203.674V489.364H207.399V493.089L206.699 491.964C207.182 491.064 207.874 490.373 208.774 489.889C209.674 489.406 210.699 489.164 211.849 489.164ZM229.134 489.164C230.201 489.164 231.151 489.381 231.984 489.814C232.834 490.231 233.501 490.881 233.984 491.764C234.468 492.631 234.709 493.748 234.709 495.114V502.814H230.809V495.714C230.809 494.631 230.568 493.831 230.084 493.314C229.618 492.798 228.951 492.539 228.084 492.539C227.468 492.539 226.909 492.673 226.409 492.939C225.926 493.189 225.543 493.581 225.259 494.114C224.993 494.648 224.859 495.331 224.859 496.164V502.814H220.959V484.264H224.859V493.089L223.984 491.964C224.468 491.064 225.159 490.373 226.059 489.889C226.959 489.406 227.984 489.164 229.134 489.164ZM246.494 502.814V500.189L246.244 499.614V494.914C246.244 494.081 245.986 493.431 245.469 492.964C244.969 492.498 244.194 492.264 243.144 492.264C242.428 492.264 241.719 492.381 241.019 492.614C240.336 492.831 239.753 493.131 239.269 493.514L237.869 490.789C238.603 490.273 239.486 489.873 240.519 489.589C241.553 489.306 242.603 489.164 243.669 489.164C245.719 489.164 247.311 489.648 248.444 490.614C249.578 491.581 250.144 493.089 250.144 495.139V502.814H246.494ZM242.394 503.014C241.344 503.014 240.444 502.839 239.694 502.489C238.944 502.123 238.369 501.631 237.969 501.014C237.569 500.398 237.369 499.706 237.369 498.939C237.369 498.139 237.561 497.439 237.944 496.839C238.344 496.239 238.969 495.773 239.819 495.439C240.669 495.089 241.778 494.914 243.144 494.914H246.719V497.189H243.569C242.653 497.189 242.019 497.339 241.669 497.639C241.336 497.939 241.169 498.314 241.169 498.764C241.169 499.264 241.361 499.664 241.744 499.964C242.144 500.248 242.686 500.389 243.369 500.389C244.019 500.389 244.603 500.239 245.119 499.939C245.636 499.623 246.011 499.164 246.244 498.564L246.844 500.364C246.561 501.231 246.044 501.889 245.294 502.339C244.544 502.789 243.578 503.014 242.394 503.014Z" fill="white"/>
<path d="M138.561 81.9859C135.861 81.9859 133.344 81.5525 131.011 80.6859C128.711 79.7859 126.711 78.5192 125.011 76.8859C123.311 75.2525 121.978 73.3359 121.011 71.1359C120.078 68.9359 119.611 66.5192 119.611 63.8859C119.611 61.2525 120.078 58.8359 121.011 56.6359C121.978 54.4359 123.311 52.5192 125.011 50.8859C126.744 49.2525 128.761 48.0025 131.061 47.1359C133.361 46.2359 135.878 45.7859 138.611 45.7859C141.644 45.7859 144.378 46.3192 146.811 47.3859C149.278 48.4192 151.344 49.9525 153.011 51.9859L147.811 56.7859C146.611 55.4192 145.278 54.4025 143.811 53.7359C142.344 53.0359 140.744 52.6859 139.011 52.6859C137.378 52.6859 135.878 52.9525 134.511 53.4859C133.144 54.0192 131.961 54.7859 130.961 55.7859C129.961 56.7859 129.178 57.9692 128.611 59.3359C128.078 60.7025 127.811 62.2192 127.811 63.8859C127.811 65.5525 128.078 67.0692 128.611 68.4359C129.178 69.8025 129.961 70.9859 130.961 71.9859C131.961 72.9859 133.144 73.7525 134.511 74.2859C135.878 74.8192 137.378 75.0859 139.011 75.0859C140.744 75.0859 142.344 74.7525 143.811 74.0859C145.278 73.3859 146.611 72.3359 147.811 70.9359L153.011 75.7359C151.344 77.7692 149.278 79.3192 146.811 80.3859C144.378 81.4525 141.628 81.9859 138.561 81.9859ZM153.246 81.3859L168.846 46.3859H176.846L192.496 81.3859H183.996L171.196 50.4859H174.396L161.546 81.3859H153.246ZM161.046 73.8859L163.196 67.7359H181.196L183.396 73.8859H161.046ZM196.128 81.3859V46.3859H212.028C215.828 46.3859 219.178 47.1192 222.078 48.5859C224.978 50.0192 227.244 52.0359 228.878 54.6359C230.511 57.2359 231.328 60.3192 231.328 63.8859C231.328 67.4192 230.511 70.5025 228.878 73.1359C227.244 75.7359 224.978 77.7692 222.078 79.2359C219.178 80.6692 215.828 81.3859 212.028 81.3859H196.128ZM204.228 74.7359H211.628C213.961 74.7359 215.978 74.3025 217.678 73.4359C219.411 72.5359 220.744 71.2692 221.678 69.6359C222.644 68.0025 223.128 66.0859 223.128 63.8859C223.128 61.6525 222.644 59.7359 221.678 58.1359C220.744 56.5025 219.411 55.2525 217.678 54.3859C215.978 53.4859 213.961 53.0359 211.628 53.0359H204.228V74.7359ZM232.348 81.3859L247.948 46.3859H255.948L271.598 81.3859H263.098L250.298 50.4859H253.498L240.648 81.3859H232.348ZM240.148 73.8859L242.298 67.7359H260.298L262.498 73.8859H240.148ZM286.729 81.9859C283.929 81.9859 281.246 81.6192 278.679 80.8859C276.112 80.1192 274.046 79.1359 272.479 77.9359L275.229 71.8359C276.729 72.9025 278.496 73.7859 280.529 74.4859C282.596 75.1525 284.679 75.4859 286.779 75.4859C288.379 75.4859 289.662 75.3359 290.629 75.0359C291.629 74.7025 292.362 74.2525 292.829 73.6859C293.296 73.1192 293.529 72.4692 293.529 71.7359C293.529 70.8025 293.162 70.0692 292.429 69.5359C291.696 68.9692 290.729 68.5192 289.529 68.1859C288.329 67.8192 286.996 67.4859 285.529 67.1859C284.096 66.8525 282.646 66.4525 281.179 65.9859C279.746 65.5192 278.429 64.9192 277.229 64.1859C276.029 63.4525 275.046 62.4859 274.279 61.2859C273.546 60.0859 273.179 58.5525 273.179 56.6859C273.179 54.6859 273.712 52.8692 274.779 51.2359C275.879 49.5692 277.512 48.2525 279.679 47.2859C281.879 46.2859 284.629 45.7859 287.929 45.7859C290.129 45.7859 292.296 46.0525 294.429 46.5859C296.562 47.0859 298.446 47.8525 300.079 48.8859L297.579 55.0359C295.946 54.1025 294.312 53.4192 292.679 52.9859C291.046 52.5192 289.446 52.2859 287.879 52.2859C286.312 52.2859 285.029 52.4692 284.029 52.8359C283.029 53.2025 282.312 53.6859 281.879 54.2859C281.446 54.8525 281.229 55.5192 281.229 56.2859C281.229 57.1859 281.596 57.9192 282.329 58.4859C283.062 59.0192 284.029 59.4525 285.229 59.7859C286.429 60.1192 287.746 60.4525 289.179 60.7859C290.646 61.1192 292.096 61.5025 293.529 61.9359C294.996 62.3692 296.329 62.9525 297.529 63.6859C298.729 64.4192 299.696 65.3859 300.429 66.5859C301.196 67.7859 301.579 69.3025 301.579 71.1359C301.579 73.1025 301.029 74.9025 299.929 76.5359C298.829 78.1692 297.179 79.4859 294.979 80.4859C292.812 81.4859 290.062 81.9859 286.729 81.9859ZM313.876 81.3859V52.9859H302.676V46.3859H333.176V52.9859H321.976V81.3859H313.876ZM337.534 81.3859V46.3859H352.684C355.817 46.3859 358.517 46.9025 360.784 47.9359C363.05 48.9359 364.8 50.3859 366.034 52.2859C367.267 54.1859 367.884 56.4525 367.884 59.0859C367.884 61.6859 367.267 63.9359 366.034 65.8359C364.8 67.7025 363.05 69.1359 360.784 70.1359C358.517 71.1359 355.817 71.6359 352.684 71.6359H342.034L345.634 68.0859V81.3859H337.534ZM359.784 81.3859L351.034 68.6859H359.684L368.534 81.3859H359.784ZM345.634 68.9859L342.034 65.1859H352.234C354.734 65.1859 356.6 64.6525 357.834 63.5859C359.067 62.4859 359.684 60.9859 359.684 59.0859C359.684 57.1525 359.067 55.6525 357.834 54.5859C356.6 53.5192 354.734 52.9859 352.234 52.9859H342.034L345.634 49.1359V68.9859ZM391.301 81.9859C388.535 81.9859 385.968 81.5359 383.601 80.6359C381.268 79.7359 379.235 78.4692 377.501 76.8359C375.801 75.2025 374.468 73.2859 373.501 71.0859C372.568 68.8859 372.101 66.4859 372.101 63.8859C372.101 61.2859 372.568 58.8859 373.501 56.6859C374.468 54.4859 375.818 52.5692 377.551 50.9359C379.285 49.3025 381.318 48.0359 383.651 47.1359C385.985 46.2359 388.518 45.7859 391.251 45.7859C394.018 45.7859 396.551 46.2359 398.851 47.1359C401.185 48.0359 403.201 49.3025 404.901 50.9359C406.635 52.5692 407.985 54.4859 408.951 56.6859C409.918 58.8525 410.401 61.2525 410.401 63.8859C410.401 66.4859 409.918 68.9025 408.951 71.1359C407.985 73.3359 406.635 75.2525 404.901 76.8859C403.201 78.4859 401.185 79.7359 398.851 80.6359C396.551 81.5359 394.035 81.9859 391.301 81.9859ZM391.251 75.0859C392.818 75.0859 394.251 74.8192 395.551 74.2859C396.885 73.7525 398.051 72.9859 399.051 71.9859C400.051 70.9859 400.818 69.8025 401.351 68.4359C401.918 67.0692 402.201 65.5525 402.201 63.8859C402.201 62.2192 401.918 60.7025 401.351 59.3359C400.818 57.9692 400.051 56.7859 399.051 55.7859C398.085 54.7859 396.935 54.0192 395.601 53.4859C394.268 52.9525 392.818 52.6859 391.251 52.6859C389.685 52.6859 388.235 52.9525 386.901 53.4859C385.601 54.0192 384.451 54.7859 383.451 55.7859C382.451 56.7859 381.668 57.9692 381.101 59.3359C380.568 60.7025 380.301 62.2192 380.301 63.8859C380.301 65.5192 380.568 67.0359 381.101 68.4359C381.668 69.8025 382.435 70.9859 383.401 71.9859C384.401 72.9859 385.568 73.7525 386.901 74.2859C388.235 74.8192 389.685 75.0859 391.251 75.0859Z" fill="white"/>
<rect x="27" y="244.502" width="459" height="47.133" fill="white"/>
<rect x="27" y="334.841" width="459" height="47.133" fill="white"/>
<rect x="27" y="154" width="459" height="48" fill="white"/>
<rect x="27" y="425.179" width="459" height="47.133" fill="white"/>
<rect x="27" y="515.517" width="459" height="47.133" fill="white"/>
</svg>
