<svg width="514" height="609" viewBox="0 0 514 609" fill="none" xmlns="http://www.w3.org/2000/svg">
<rect width="489" height="593" fill="#449C33"/>
<rect x="16" y="17" width="498" height="592" fill="#C61818"/>
<path d="M143.822 82L159.422 47H167.422L183.072 82H174.572L161.772 51.1H164.972L152.122 82H143.822ZM151.622 74.5L153.772 68.35H171.772L173.972 74.5H151.622ZM186.704 82V47H194.804V75.4H212.354V82H186.704ZM220.858 82V53.6H209.658V47H240.158V53.6H228.958V82H220.858ZM251.966 61.1H268.816V67.4H251.966V61.1ZM252.566 75.5H271.616V82H244.516V47H270.966V53.5H252.566V75.5ZM278.061 82V47H293.211C296.344 47 299.044 47.5167 301.311 48.55C303.578 49.55 305.328 51 306.561 52.9C307.794 54.8 308.411 57.0667 308.411 59.7C308.411 62.3 307.794 64.55 306.561 66.45C305.328 68.3167 303.578 69.75 301.311 70.75C299.044 71.75 296.344 72.25 293.211 72.25H282.561L286.161 68.7V82H278.061ZM300.311 82L291.561 69.3H300.211L309.061 82H300.311ZM286.161 69.6L282.561 65.8H292.761C295.261 65.8 297.128 65.2667 298.361 64.2C299.594 63.1 300.211 61.6 300.211 59.7C300.211 57.7667 299.594 56.2667 298.361 55.2C297.128 54.1333 295.261 53.6 292.761 53.6H282.561L286.161 49.75V69.6ZM310.229 82L325.829 47H333.829L349.479 82H340.979L328.179 51.1H331.379L318.529 82H310.229ZM318.029 74.5L320.179 68.35H338.179L340.379 74.5H318.029ZM353.11 82V47H368.26C371.393 47 374.093 47.5167 376.36 48.55C378.627 49.55 380.377 51 381.61 52.9C382.843 54.8 383.46 57.0667 383.46 59.7C383.46 62.3 382.843 64.55 381.61 66.45C380.377 68.3167 378.627 69.75 376.36 70.75C374.093 71.75 371.393 72.25 368.26 72.25H357.61L361.21 68.7V82H353.11ZM375.36 82L366.61 69.3H375.26L384.11 82H375.36ZM361.21 69.6L357.61 65.8H367.81C370.31 65.8 372.177 65.2667 373.41 64.2C374.643 63.1 375.26 61.6 375.26 59.7C375.26 57.7667 374.643 56.2667 373.41 55.2C372.177 54.1333 370.31 53.6 367.81 53.6H357.61L361.21 49.75V69.6ZM118.247 143V108H133.397C136.53 108 139.23 108.517 141.497 109.55C143.763 110.55 145.513 112 146.747 113.9C147.98 115.8 148.597 118.067 148.597 120.7C148.597 123.3 147.98 125.55 146.747 127.45C145.513 129.317 143.763 130.75 141.497 131.75C139.23 132.75 136.53 133.25 133.397 133.25H122.747L126.347 129.7V143H118.247ZM140.497 143L131.747 130.3H140.397L149.247 143H140.497ZM126.347 130.6L122.747 126.8H132.947C135.447 126.8 137.313 126.267 138.547 125.2C139.78 124.1 140.397 122.6 140.397 120.7C140.397 118.767 139.78 117.267 138.547 116.2C137.313 115.133 135.447 114.6 132.947 114.6H122.747L126.347 110.75V130.6ZM162.464 122.1H179.314V128.4H162.464V122.1ZM163.064 136.5H182.114V143H155.014V108H181.464V114.5H163.064V136.5ZM200.059 143.6C197.259 143.6 194.576 143.233 192.009 142.5C189.443 141.733 187.376 140.75 185.809 139.55L188.559 133.45C190.059 134.517 191.826 135.4 193.859 136.1C195.926 136.767 198.009 137.1 200.109 137.1C201.709 137.1 202.993 136.95 203.959 136.65C204.959 136.317 205.693 135.867 206.159 135.3C206.626 134.733 206.859 134.083 206.859 133.35C206.859 132.417 206.493 131.683 205.759 131.15C205.026 130.583 204.059 130.133 202.859 129.8C201.659 129.433 200.326 129.1 198.859 128.8C197.426 128.467 195.976 128.067 194.509 127.6C193.076 127.133 191.759 126.533 190.559 125.8C189.359 125.067 188.376 124.1 187.609 122.9C186.876 121.7 186.509 120.167 186.509 118.3C186.509 116.3 187.043 114.483 188.109 112.85C189.209 111.183 190.843 109.867 193.009 108.9C195.209 107.9 197.959 107.4 201.259 107.4C203.459 107.4 205.626 107.667 207.759 108.2C209.893 108.7 211.776 109.467 213.409 110.5L210.909 116.65C209.276 115.717 207.643 115.033 206.009 114.6C204.376 114.133 202.776 113.9 201.209 113.9C199.643 113.9 198.359 114.083 197.359 114.45C196.359 114.817 195.643 115.3 195.209 115.9C194.776 116.467 194.559 117.133 194.559 117.9C194.559 118.8 194.926 119.533 195.659 120.1C196.393 120.633 197.359 121.067 198.559 121.4C199.759 121.733 201.076 122.067 202.509 122.4C203.976 122.733 205.426 123.117 206.859 123.55C208.326 123.983 209.659 124.567 210.859 125.3C212.059 126.033 213.026 127 213.759 128.2C214.526 129.4 214.909 130.917 214.909 132.75C214.909 134.717 214.359 136.517 213.259 138.15C212.159 139.783 210.509 141.1 208.309 142.1C206.143 143.1 203.393 143.6 200.059 143.6ZM227.206 143V114.6H216.006V108H246.506V114.6H235.306V143H227.206ZM250.864 143V108H266.014C269.147 108 271.847 108.517 274.114 109.55C276.381 110.55 278.131 112 279.364 113.9C280.597 115.8 281.214 118.067 281.214 120.7C281.214 123.3 280.597 125.55 279.364 127.45C278.131 129.317 276.381 130.75 274.114 131.75C271.847 132.75 269.147 133.25 266.014 133.25H255.364L258.964 129.7V143H250.864ZM273.114 143L264.364 130.3H273.014L281.864 143H273.114ZM258.964 130.6L255.364 126.8H265.564C268.064 126.8 269.931 126.267 271.164 125.2C272.397 124.1 273.014 122.6 273.014 120.7C273.014 118.767 272.397 117.267 271.164 116.2C269.931 115.133 268.064 114.6 265.564 114.6H255.364L258.964 110.75V130.6ZM287.631 143V108H295.731V143H287.631ZM320.788 143.6C318.088 143.6 315.571 143.167 313.238 142.3C310.938 141.4 308.938 140.133 307.238 138.5C305.538 136.867 304.204 134.95 303.238 132.75C302.304 130.55 301.838 128.133 301.838 125.5C301.838 122.867 302.304 120.45 303.238 118.25C304.204 116.05 305.538 114.133 307.238 112.5C308.971 110.867 310.988 109.617 313.288 108.75C315.588 107.85 318.104 107.4 320.838 107.4C323.871 107.4 326.604 107.933 329.038 109C331.504 110.033 333.571 111.567 335.238 113.6L330.038 118.4C328.838 117.033 327.504 116.017 326.038 115.35C324.571 114.65 322.971 114.3 321.238 114.3C319.604 114.3 318.104 114.567 316.738 115.1C315.371 115.633 314.188 116.4 313.188 117.4C312.188 118.4 311.404 119.583 310.838 120.95C310.304 122.317 310.038 123.833 310.038 125.5C310.038 127.167 310.304 128.683 310.838 130.05C311.404 131.417 312.188 132.6 313.188 133.6C314.188 134.6 315.371 135.367 316.738 135.9C318.104 136.433 319.604 136.7 321.238 136.7C322.971 136.7 324.571 136.367 326.038 135.7C327.504 135 328.838 133.95 330.038 132.55L335.238 137.35C333.571 139.383 331.504 140.933 329.038 142C326.604 143.067 323.854 143.6 320.788 143.6ZM318.088 154.6C317.221 154.6 316.371 154.5 315.538 154.3C314.738 154.1 314.038 153.85 313.438 153.55L314.638 150.2C315.138 150.433 315.654 150.617 316.188 150.75C316.721 150.883 317.288 150.95 317.888 150.95C318.821 150.95 319.488 150.8 319.888 150.5C320.288 150.2 320.488 149.817 320.488 149.35C320.488 148.917 320.288 148.567 319.888 148.3C319.521 148.033 318.904 147.9 318.038 147.9H316.338L317.638 142.6H321.788L321.088 145.5C322.588 145.667 323.688 146.133 324.388 146.9C325.088 147.7 325.438 148.617 325.438 149.65C325.438 151.15 324.771 152.35 323.438 153.25C322.104 154.15 320.321 154.6 318.088 154.6ZM335.473 143L351.073 108H359.073L374.723 143H366.223L353.423 112.1H356.623L343.773 143H335.473ZM343.273 135.5L345.423 129.35H363.423L365.623 135.5H343.273ZM358.823 105.3C357.956 105.3 357.19 105.15 356.523 104.85C355.856 104.517 355.256 104.15 354.723 103.75C354.19 103.317 353.69 102.95 353.223 102.65C352.756 102.317 352.29 102.15 351.823 102.15C351.156 102.15 350.606 102.4 350.173 102.9C349.74 103.367 349.49 104.05 349.423 104.95H345.473C345.54 102.717 346.09 100.95 347.123 99.65C348.156 98.3167 349.556 97.65 351.323 97.65C352.19 97.65 352.956 97.8167 353.623 98.15C354.29 98.45 354.89 98.8167 355.423 99.25C355.99 99.6833 356.506 100.067 356.973 100.4C357.44 100.7 357.89 100.85 358.323 100.85C359.023 100.85 359.59 100.617 360.023 100.15C360.456 99.65 360.69 98.9833 360.723 98.15H364.673C364.64 100.283 364.09 102.017 363.023 103.35C361.99 104.65 360.59 105.3 358.823 105.3ZM394.866 143.6C392.099 143.6 389.532 143.15 387.166 142.25C384.832 141.35 382.799 140.083 381.066 138.45C379.366 136.817 378.032 134.9 377.066 132.7C376.132 130.5 375.666 128.1 375.666 125.5C375.666 122.9 376.132 120.5 377.066 118.3C378.032 116.1 379.382 114.183 381.116 112.55C382.849 110.917 384.882 109.65 387.216 108.75C389.549 107.85 392.082 107.4 394.816 107.4C397.582 107.4 400.116 107.85 402.416 108.75C404.749 109.65 406.766 110.917 408.466 112.55C410.199 114.183 411.549 116.1 412.516 118.3C413.482 120.467 413.966 122.867 413.966 125.5C413.966 128.1 413.482 130.517 412.516 132.75C411.549 134.95 410.199 136.867 408.466 138.5C406.766 140.1 404.749 141.35 402.416 142.25C400.116 143.15 397.599 143.6 394.866 143.6ZM394.816 136.7C396.382 136.7 397.816 136.433 399.116 135.9C400.449 135.367 401.616 134.6 402.616 133.6C403.616 132.6 404.382 131.417 404.916 130.05C405.482 128.683 405.766 127.167 405.766 125.5C405.766 123.833 405.482 122.317 404.916 120.95C404.382 119.583 403.616 118.4 402.616 117.4C401.649 116.4 400.499 115.633 399.166 115.1C397.832 114.567 396.382 114.3 394.816 114.3C393.249 114.3 391.799 114.567 390.466 115.1C389.166 115.633 388.016 116.4 387.016 117.4C386.016 118.4 385.232 119.583 384.666 120.95C384.132 122.317 383.866 123.833 383.866 125.5C383.866 127.133 384.132 128.65 384.666 130.05C385.232 131.417 385.999 132.6 386.966 133.6C387.966 134.6 389.132 135.367 390.466 135.9C391.799 136.433 393.249 136.7 394.816 136.7Z" fill="white"/>
</svg>
