<svg width="514" height="609" viewBox="0 0 514 609" fill="none" xmlns="http://www.w3.org/2000/svg">
<rect width="489" height="593" fill="#449C33"/>
<rect x="16" y="17" width="498" height="592" fill="#C61818"/>
<path d="M141.185 88.6C138.385 88.6 135.702 88.2333 133.135 87.5C130.568 86.7333 128.502 85.75 126.935 84.55L129.685 78.45C131.185 79.5167 132.952 80.4 134.985 81.1C137.052 81.7667 139.135 82.1 141.235 82.1C142.835 82.1 144.118 81.95 145.085 81.65C146.085 81.3167 146.818 80.8667 147.285 80.3C147.752 79.7333 147.985 79.0833 147.985 78.35C147.985 77.4167 147.618 76.6833 146.885 76.15C146.152 75.5833 145.185 75.1333 143.985 74.8C142.785 74.4333 141.452 74.1 139.985 73.8C138.552 73.4667 137.102 73.0667 135.635 72.6C134.202 72.1333 132.885 71.5333 131.685 70.8C130.485 70.0667 129.502 69.1 128.735 67.9C128.002 66.7 127.635 65.1667 127.635 63.3C127.635 61.3 128.168 59.4833 129.235 57.85C130.335 56.1833 131.968 54.8667 134.135 53.9C136.335 52.9 139.085 52.4 142.385 52.4C144.585 52.4 146.752 52.6667 148.885 53.2C151.018 53.7 152.902 54.4667 154.535 55.5L152.035 61.65C150.402 60.7167 148.768 60.0333 147.135 59.6C145.502 59.1333 143.902 58.9 142.335 58.9C140.768 58.9 139.485 59.0833 138.485 59.45C137.485 59.8167 136.768 60.3 136.335 60.9C135.902 61.4667 135.685 62.1333 135.685 62.9C135.685 63.8 136.052 64.5333 136.785 65.1C137.518 65.6333 138.485 66.0667 139.685 66.4C140.885 66.7333 142.202 67.0667 143.635 67.4C145.102 67.7333 146.552 68.1167 147.985 68.55C149.452 68.9833 150.785 69.5667 151.985 70.3C153.185 71.0333 154.152 72 154.885 73.2C155.652 74.4 156.035 75.9167 156.035 77.75C156.035 79.7167 155.485 81.5167 154.385 83.15C153.285 84.7833 151.635 86.1 149.435 87.1C147.268 88.1 144.518 88.6 141.185 88.6ZM178.57 88.6C175.803 88.6 173.237 88.15 170.87 87.25C168.537 86.35 166.503 85.0833 164.77 83.45C163.07 81.8167 161.737 79.9 160.77 77.7C159.837 75.5 159.37 73.1 159.37 70.5C159.37 67.9 159.837 65.5 160.77 63.3C161.737 61.1 163.087 59.1833 164.82 57.55C166.553 55.9167 168.587 54.65 170.92 53.75C173.253 52.85 175.787 52.4 178.52 52.4C181.287 52.4 183.82 52.85 186.12 53.75C188.453 54.65 190.47 55.9167 192.17 57.55C193.903 59.1833 195.253 61.1 196.22 63.3C197.187 65.4667 197.67 67.8667 197.67 70.5C197.67 73.1 197.187 75.5167 196.22 77.75C195.253 79.95 193.903 81.8667 192.17 83.5C190.47 85.1 188.453 86.35 186.12 87.25C183.82 88.15 181.303 88.6 178.57 88.6ZM178.52 81.7C180.087 81.7 181.52 81.4333 182.82 80.9C184.153 80.3667 185.32 79.6 186.32 78.6C187.32 77.6 188.087 76.4167 188.62 75.05C189.187 73.6833 189.47 72.1667 189.47 70.5C189.47 68.8333 189.187 67.3167 188.62 65.95C188.087 64.5833 187.32 63.4 186.32 62.4C185.353 61.4 184.203 60.6333 182.87 60.1C181.537 59.5667 180.087 59.3 178.52 59.3C176.953 59.3 175.503 59.5667 174.17 60.1C172.87 60.6333 171.72 61.4 170.72 62.4C169.72 63.4 168.937 64.5833 168.37 65.95C167.837 67.3167 167.57 68.8333 167.57 70.5C167.57 72.1333 167.837 73.65 168.37 75.05C168.937 76.4167 169.703 77.6 170.67 78.6C171.67 79.6 172.837 80.3667 174.17 80.9C175.503 81.4333 176.953 81.7 178.52 81.7ZM203.757 88V53H211.857V81.4H229.407V88H203.757ZM233.933 88V53H242.033V88H233.933ZM267.089 88.6C264.389 88.6 261.873 88.1667 259.539 87.3C257.239 86.4 255.239 85.1333 253.539 83.5C251.839 81.8667 250.506 79.95 249.539 77.75C248.606 75.55 248.139 73.1333 248.139 70.5C248.139 67.8667 248.606 65.45 249.539 63.25C250.506 61.05 251.839 59.1333 253.539 57.5C255.273 55.8667 257.289 54.6167 259.589 53.75C261.889 52.85 264.406 52.4 267.139 52.4C270.173 52.4 272.906 52.9333 275.339 54C277.806 55.0333 279.873 56.5667 281.539 58.6L276.339 63.4C275.139 62.0333 273.806 61.0167 272.339 60.35C270.873 59.65 269.273 59.3 267.539 59.3C265.906 59.3 264.406 59.5667 263.039 60.1C261.673 60.6333 260.489 61.4 259.489 62.4C258.489 63.4 257.706 64.5833 257.139 65.95C256.606 67.3167 256.339 68.8333 256.339 70.5C256.339 72.1667 256.606 73.6833 257.139 75.05C257.706 76.4167 258.489 77.6 259.489 78.6C260.489 79.6 261.673 80.3667 263.039 80.9C264.406 81.4333 265.906 81.7 267.539 81.7C269.273 81.7 270.873 81.3667 272.339 80.7C273.806 80 275.139 78.95 276.339 77.55L281.539 82.35C279.873 84.3833 277.806 85.9333 275.339 87C272.906 88.0667 270.156 88.6 267.089 88.6ZM287.009 88V53H295.109V88H287.009ZM310.666 88V59.6H299.466V53H329.966V59.6H318.766V88H310.666ZM327.966 88L343.566 53H351.566L367.216 88H358.716L345.916 57.1H349.116L336.266 88H327.966ZM335.766 80.5L337.916 74.35H355.916L358.116 80.5H335.766ZM370.847 88V53H385.997C389.131 53 391.831 53.5167 394.097 54.55C396.364 55.55 398.114 57 399.347 58.9C400.581 60.8 401.197 63.0667 401.197 65.7C401.197 68.3 400.581 70.55 399.347 72.45C398.114 74.3167 396.364 75.75 394.097 76.75C391.831 77.75 389.131 78.25 385.997 78.25H375.347L378.947 74.7V88H370.847ZM393.097 88L384.347 75.3H392.997L401.847 88H393.097ZM378.947 75.6L375.347 71.8H385.547C388.047 71.8 389.914 71.2667 391.147 70.2C392.381 69.1 392.997 67.6 392.997 65.7C392.997 63.7667 392.381 62.2667 391.147 61.2C389.914 60.1333 388.047 59.6 385.547 59.6H375.347L378.947 55.75V75.6Z" fill="white"/>
</svg>
