<svg width="514" height="609" viewBox="0 0 514 609" fill="none" xmlns="http://www.w3.org/2000/svg">
<rect width="489" height="593" fill="#449C33"/>
<rect x="16" y="17" width="498" height="592" fill="#C61818"/>
<path d="M140.234 88.6C137.534 88.6 135.017 88.1667 132.684 87.3C130.384 86.4 128.384 85.1333 126.684 83.5C124.984 81.8667 123.651 79.95 122.684 77.75C121.751 75.55 121.284 73.1333 121.284 70.5C121.284 67.8667 121.751 65.45 122.684 63.25C123.651 61.05 124.984 59.1333 126.684 57.5C128.417 55.8667 130.434 54.6167 132.734 53.75C135.034 52.85 137.551 52.4 140.284 52.4C143.317 52.4 146.051 52.9333 148.484 54C150.951 55.0333 153.017 56.5667 154.684 58.6L149.484 63.4C148.284 62.0333 146.951 61.0167 145.484 60.35C144.017 59.65 142.417 59.3 140.684 59.3C139.051 59.3 137.551 59.5667 136.184 60.1C134.817 60.6333 133.634 61.4 132.634 62.4C131.634 63.4 130.851 64.5833 130.284 65.95C129.751 67.3167 129.484 68.8333 129.484 70.5C129.484 72.1667 129.751 73.6833 130.284 75.05C130.851 76.4167 131.634 77.6 132.634 78.6C133.634 79.6 134.817 80.3667 136.184 80.9C137.551 81.4333 139.051 81.7 140.684 81.7C142.417 81.7 144.017 81.3667 145.484 80.7C146.951 80 148.284 78.95 149.484 77.55L154.684 82.35C153.017 84.3833 150.951 85.9333 148.484 87C146.051 88.0667 143.301 88.6 140.234 88.6ZM154.919 88L170.519 53H178.519L194.169 88H185.669L172.869 57.1H176.069L163.219 88H154.919ZM162.719 80.5L164.869 74.35H182.869L185.069 80.5H162.719ZM197.8 88V53H204.5L225.15 78.2H221.9V53H229.9V88H223.25L202.55 62.8H205.8V88H197.8ZM254.931 88.6C252.231 88.6 249.715 88.1667 247.381 87.3C245.081 86.4 243.081 85.1333 241.381 83.5C239.681 81.8667 238.348 79.95 237.381 77.75C236.448 75.55 235.981 73.1333 235.981 70.5C235.981 67.8667 236.448 65.45 237.381 63.25C238.348 61.05 239.681 59.1333 241.381 57.5C243.115 55.8667 245.131 54.6167 247.431 53.75C249.731 52.85 252.248 52.4 254.981 52.4C258.015 52.4 260.748 52.9333 263.181 54C265.648 55.0333 267.715 56.5667 269.381 58.6L264.181 63.4C262.981 62.0333 261.648 61.0167 260.181 60.35C258.715 59.65 257.115 59.3 255.381 59.3C253.748 59.3 252.248 59.5667 250.881 60.1C249.515 60.6333 248.331 61.4 247.331 62.4C246.331 63.4 245.548 64.5833 244.981 65.95C244.448 67.3167 244.181 68.8333 244.181 70.5C244.181 72.1667 244.448 73.6833 244.981 75.05C245.548 76.4167 246.331 77.6 247.331 78.6C248.331 79.6 249.515 80.3667 250.881 80.9C252.248 81.4333 253.748 81.7 255.381 81.7C257.115 81.7 258.715 81.3667 260.181 80.7C261.648 80 262.981 78.95 264.181 77.55L269.381 82.35C267.715 84.3833 265.648 85.9333 263.181 87C260.748 88.0667 257.998 88.6 254.931 88.6ZM282.301 67.1H299.151V73.4H282.301V67.1ZM282.901 81.5H301.951V88H274.851V53H301.301V59.5H282.901V81.5ZM308.396 88V53H316.496V81.4H334.046V88H308.396ZM334.167 88L349.767 53H357.767L373.417 88H364.917L352.117 57.1H355.317L342.467 88H334.167ZM341.967 80.5L344.117 74.35H362.117L364.317 80.5H341.967ZM377.048 88V53H392.198C395.332 53 398.032 53.5167 400.298 54.55C402.565 55.55 404.315 57 405.548 58.9C406.782 60.8 407.398 63.0667 407.398 65.7C407.398 68.3 406.782 70.55 405.548 72.45C404.315 74.3167 402.565 75.75 400.298 76.75C398.032 77.75 395.332 78.25 392.198 78.25H381.548L385.148 74.7V88H377.048ZM399.298 88L390.548 75.3H399.198L408.048 88H399.298ZM385.148 75.6L381.548 71.8H391.748C394.248 71.8 396.115 71.2667 397.348 70.2C398.582 69.1 399.198 67.6 399.198 65.7C399.198 63.7667 398.582 62.2667 397.348 61.2C396.115 60.1333 394.248 59.6 391.748 59.6H381.548L385.148 55.75V75.6Z" fill="white"/>
</svg>
